<svg xmlns="http://www.w3.org/2000/svg" width="20.586" height="17.932" viewBox="0 0 20.586 17.932">
  <g id="menu" transform="translate(0 -33)">
    <g id="Group_11" data-name="Group 11" transform="translate(0 33)">
      <g id="Group_10" data-name="Group 10" transform="translate(0 0)">
        <path id="Path_11" data-name="Path 11" d="M2.533,33a2.533,2.533,0,1,0,2.533,2.533A2.536,2.536,0,0,0,2.533,33Z" transform="translate(0 -33)" fill="#ff253a"/>
      </g>
    </g>
    <g id="Group_13" data-name="Group 13" transform="translate(0 39.433)">
      <g id="Group_12" data-name="Group 12">
        <path id="Path_12" data-name="Path 12" d="M2.533,193a2.533,2.533,0,1,0,2.533,2.533A2.536,2.536,0,0,0,2.533,193Z" transform="translate(0 -193)" fill="#ff253a"/>
      </g>
    </g>
    <g id="Group_15" data-name="Group 15" transform="translate(0 45.866)">
      <g id="Group_14" data-name="Group 14">
        <path id="Path_13" data-name="Path 13" d="M2.533,353a2.533,2.533,0,1,0,2.533,2.533A2.536,2.536,0,0,0,2.533,353Z" transform="translate(0 -353)" fill="#ff253a"/>
      </g>
    </g>
    <g id="Group_17" data-name="Group 17" transform="translate(6.433 33.643)">
      <g id="Group_16" data-name="Group 16" transform="translate(0 0)">
        <path id="Path_14" data-name="Path 14" d="M172.263,49H161.89a1.89,1.89,0,1,0,0,3.779h10.373a1.89,1.89,0,1,0,0-3.779Z" transform="translate(-160 -49)" fill="#ff253a"/>
      </g>
    </g>
    <g id="Group_19" data-name="Group 19" transform="translate(6.433 40.076)">
      <g id="Group_18" data-name="Group 18">
        <path id="Path_15" data-name="Path 15" d="M172.263,209H161.89a1.89,1.89,0,1,0,0,3.779h10.373a1.89,1.89,0,1,0,0-3.779Z" transform="translate(-160 -209)" fill="#ff253a"/>
      </g>
    </g>
    <g id="Group_21" data-name="Group 21" transform="translate(6.433 46.509)">
      <g id="Group_20" data-name="Group 20" transform="translate(0 0)">
        <path id="Path_16" data-name="Path 16" d="M172.263,369H161.89a1.89,1.89,0,1,0,0,3.779h10.373a1.89,1.89,0,1,0,0-3.779Z" transform="translate(-160 -369)" fill="#ff253a"/>
      </g>
    </g>
  </g>
</svg>
