<svg id="Group_24" data-name="Group 24" xmlns="http://www.w3.org/2000/svg" width="20.622" height="13.257" viewBox="0 0 20.622 13.257">
  <path id="Path_20" data-name="Path 20" d="M20.273,86.916a.737.737,0,0,0-.717-.032L14.73,89.3V87.543a2.21,2.21,0,0,0-2.21-2.21H2.21A2.21,2.21,0,0,0,0,87.543v8.838a2.21,2.21,0,0,0,2.21,2.21H12.521a2.21,2.21,0,0,0,2.21-2.21V94.626l4.826,2.417a.737.737,0,0,0,1.066-.663V87.543A.736.736,0,0,0,20.273,86.916ZM7.365,94.908a2.946,2.946,0,1,1,2.946-2.946A2.946,2.946,0,0,1,7.365,94.908Z" transform="translate(0 -85.333)" fill="#ff253a"/>
</svg>
