<svg xmlns="http://www.w3.org/2000/svg" width="18.053" height="17.478" viewBox="0 0 18.053 17.478">
  <path id="Path_9" data-name="Path 9" d="M17.827,13.418a.861.861,0,0,0-.071-1.232L9.688,5.126a1.006,1.006,0,0,0-1.312.015l-8.1,7.421a.856.856,0,0,0-.039,1.23l.2.211A.885.885,0,0,0,1.66,14.1l.605-.542v7.932a.881.881,0,0,0,.881.881H6.3a.881.881,0,0,0,.881-.881v-5.55h4.025v5.55a.832.832,0,0,0,.827.88h3.344a.881.881,0,0,0,.881-.881v-7.82l.373.328c.206.181.638.036.965-.324Z" transform="translate(0 -4.89)" fill="#ff253a"/>
</svg>
