<svg xmlns="http://www.w3.org/2000/svg" width="94.886" height="95.258" viewBox="0 0 94.886 95.258">
  <g id="upload" transform="translate(-1)">
    <path id="Path_23" data-name="Path 23" d="M87.97,29.9a24.729,24.729,0,0,0,.474-4.783A25.107,25.107,0,0,0,41.721,12.335,17.65,17.65,0,0,0,17.938,26.219a19.536,19.536,0,0,0,2.6,38.9H40.071V92.467a2.791,2.791,0,0,0,2.791,2.791H54.025a2.791,2.791,0,0,0,2.791-2.791V65.118H76.351A19.521,19.521,0,0,0,87.97,29.9ZM51.234,89.677H45.652V51.164a2.791,2.791,0,0,0-2.791-2.791H40.78l7.663-10.948,7.663,10.948H54.025a2.791,2.791,0,0,0-2.791,2.791Zm25.117-30.14H56.815V53.955h4.651a2.791,2.791,0,0,0,2.286-4.391L50.729,30.959a2.791,2.791,0,0,0-4.572,0L33.133,49.564a2.791,2.791,0,0,0,2.286,4.391h4.651v5.582H20.535a13.954,13.954,0,1,1,0-27.908,2.791,2.791,0,0,0,2.791-2.791A12.072,12.072,0,0,1,41.537,18.422,2.791,2.791,0,0,0,45.5,17.157,19.516,19.516,0,0,1,82.119,30.394a2.791,2.791,0,0,0,1.274,3.16,13.943,13.943,0,0,1-7.042,25.983Z" transform="translate(0)" fill="#ff253a"/>
  </g>
</svg>
