<svg xmlns="http://www.w3.org/2000/svg" width="39" height="39.153" viewBox="0 0 39 39.153">
  <g id="upload" transform="translate(-1)">
    <path id="Path_23" data-name="Path 23" d="M36.747,12.29a10.164,10.164,0,0,0,.195-1.966,10.32,10.32,0,0,0-19.2-5.254,7.255,7.255,0,0,0-9.775,5.707A8.03,8.03,0,0,0,9.029,26.765h8.029V38.006a1.147,1.147,0,0,0,1.147,1.147h4.588a1.147,1.147,0,0,0,1.147-1.147V26.765h8.029A8.024,8.024,0,0,0,36.747,12.29Zm-15.1,24.569H19.353V21.029a1.147,1.147,0,0,0-1.147-1.147H17.35l3.15-4.5,3.15,4.5h-.856a1.147,1.147,0,0,0-1.147,1.147ZM31.971,24.471H23.941V22.176h1.912a1.147,1.147,0,0,0,.94-1.8L21.44,12.725a1.147,1.147,0,0,0-1.879,0l-5.353,7.647a1.147,1.147,0,0,0,.94,1.8h1.912v2.294H9.029A5.735,5.735,0,1,1,9.029,13a1.147,1.147,0,0,0,1.147-1.147,4.962,4.962,0,0,1,7.485-4.281,1.147,1.147,0,0,0,1.629-.52,8.022,8.022,0,0,1,15.051,5.441,1.147,1.147,0,0,0,.524,1.3,5.731,5.731,0,0,1-2.895,10.679Z" transform="translate(0)" fill="#a8a8a8"/>
  </g>
</svg>
