<svg xmlns="http://www.w3.org/2000/svg" width="12.277" height="7.318" viewBox="0 0 12.277 7.318">
  <g id="eye" transform="translate(0 -98.725)">
    <path id="Path_5" data-name="Path 5" d="M6.139,98.725A7.659,7.659,0,0,0,.1,102.093a.486.486,0,0,0,0,.58,7.655,7.655,0,0,0,6.043,3.37,7.659,7.659,0,0,0,6.043-3.368.486.486,0,0,0,0-.58A7.655,7.655,0,0,0,6.139,98.725Zm.168,6.236a2.582,2.582,0,1,1,2.408-2.408A2.584,2.584,0,0,1,6.307,104.961Zm-.078-1.19a1.39,1.39,0,1,1,1.3-1.3A1.388,1.388,0,0,1,6.229,103.771Z" transform="translate(0 0)" fill="#a8a8a8"/>
  </g>
</svg>
