<svg xmlns="http://www.w3.org/2000/svg" xmlns:xlink="http://www.w3.org/1999/xlink" width="72" height="72" viewBox="0 0 72 72">
  <defs>
    <linearGradient id="linear-gradient" x1="0.5" x2="0.5" y2="1" gradientUnits="objectBoundingBox">
      <stop offset="0" stop-color="#fc5375"/>
      <stop offset="1" stop-color="#926aef"/>
    </linearGradient>
  </defs>
  <g id="Group_147" data-name="Group 147" transform="translate(864 366)">
    <g id="Group_43" data-name="Group 43" transform="translate(-1035 -606)">
      <rect id="Rectangle_36" data-name="Rectangle 36" width="72" height="72" rx="18" transform="translate(171 240)" fill="url(#linear-gradient)"/>
      <path id="Path_2" data-name="Path 2" d="M13.491,7.518c1.34,0,2.389,1.894,2.389,4.225s-1.049,4.225-2.389,4.225c-1.311,0-2.36-1.894-2.36-4.225S12.18,7.518,13.491,7.518ZM1.573,0H39.336A1.567,1.567,0,0,1,40.91,1.573V20.8a1.567,1.567,0,0,1-1.573,1.573H14.307l2.214,4.342a1.525,1.525,0,0,1-.67,2.1,1.575,1.575,0,0,1-1.4.029h0L.874,22.2A1.538,1.538,0,0,1,0,20.8H0V1.573A1.567,1.567,0,0,1,1.573,0ZM37.763,3.147H3.147v16.7l8.45,4.108L10.4,21.62a1.567,1.567,0,0,1,1.34-2.389h26.02ZM34.179,28.817a1.557,1.557,0,1,1,2.535,1.807,20.937,20.937,0,0,1-7.226,6.352,19.054,19.054,0,0,1-9.033,2.273,19.257,19.257,0,0,1-9.062-2.273,21.111,21.111,0,0,1-7.2-6.352,1.557,1.557,0,1,1,2.535-1.807,17.873,17.873,0,0,0,6.148,5.391,16.1,16.1,0,0,0,15.152,0A18.418,18.418,0,0,0,34.179,28.817ZM27.39,7.518c1.311,0,2.389,1.894,2.389,4.225S28.7,15.968,27.39,15.968s-2.36-1.894-2.36-4.225S26.078,7.518,27.39,7.518Z" transform="translate(187 256)" fill="#fff" fill-rule="evenodd"/>
    </g>
  </g>
</svg>
