<svg id="Group_2" data-name="Group 2" xmlns="http://www.w3.org/2000/svg" width="17.551" height="17.551" viewBox="0 0 17.551 17.551">
  <g id="Group_1" data-name="Group 1" transform="translate(0 0)">
    <path id="Path_3" data-name="Path 3" d="M98.228-1H85.064a.731.731,0,0,0-.731.731V4.85a.731.731,0,0,0,1.463,0V.463H97.5V15.089H85.8V10.7a.731.731,0,0,0-1.463,0V15.82a.731.731,0,0,0,.731.731H98.228a.731.731,0,0,0,.731-.731V-.269A.731.731,0,0,0,98.228-1Z" transform="translate(-81.408 1)" fill="#575757"/>
    <path id="Path_4" data-name="Path 4" d="M5.8,154.4a.731.731,0,0,0,1.034,1.034l2.925-2.925h0q.025-.025.048-.053l.02-.026.023-.031c.007-.01.013-.021.019-.032l.017-.029c.006-.011.011-.022.016-.033s.01-.021.015-.032.008-.022.012-.033.009-.023.012-.035.006-.022.009-.033.006-.024.009-.036,0-.026.006-.039,0-.021,0-.032a.736.736,0,0,0,0-.144c0-.011,0-.021,0-.032s0-.026-.006-.039-.006-.024-.009-.036-.005-.022-.009-.033-.008-.023-.012-.035-.008-.022-.012-.033-.01-.021-.015-.032-.01-.022-.016-.033l-.017-.029c-.006-.011-.012-.021-.019-.032l-.023-.031-.02-.026c-.015-.018-.031-.036-.048-.053h0L6.83,148.552A.731.731,0,1,0,5.8,149.586l1.677,1.677H-.269a.731.731,0,0,0-.731.731.731.731,0,0,0,.731.731H7.473Z" transform="translate(1 -143.219)" fill="#575757"/>
  </g>
</svg>
