<svg xmlns="http://www.w3.org/2000/svg" width="15" height="11.25" viewBox="0 0 15 11.25">
  <path id="id-card" d="M13.282,3H1.719A1.72,1.72,0,0,0,0,4.719v7.813A1.72,1.72,0,0,0,1.719,14.25H13.282A1.72,1.72,0,0,0,15,12.532V4.719A1.72,1.72,0,0,0,13.282,3ZM4.688,5.5A1.563,1.563,0,1,1,3.125,7.063,1.565,1.565,0,0,1,4.688,5.5ZM7.5,11.282a.469.469,0,0,1-.469.469H2.344a.469.469,0,0,1-.469-.469v-.313A1.72,1.72,0,0,1,3.594,9.25H5.781A1.72,1.72,0,0,1,7.5,10.969Zm5.156.469H9.219a.469.469,0,0,1,0-.938h3.438a.469.469,0,0,1,0,.938Zm0-2.5H9.219a.469.469,0,0,1,0-.938h3.438a.469.469,0,0,1,0,.938Zm0-2.5H9.219a.469.469,0,0,1,0-.938h3.438a.469.469,0,1,1,0,.938Z" transform="translate(0 -3)"/>
</svg>
