<svg id="rss" xmlns="http://www.w3.org/2000/svg" width="15" height="15" viewBox="0 0 15 15">
  <path id="Path_25" data-name="Path 25" d="M2.227,364.453a2.227,2.227,0,0,0,0-4.453,2.227,2.227,0,0,0,0,4.453Zm0,0" transform="translate(0 -349.453)"/>
  <path id="Path_26" data-name="Path 26" d="M7.09,189.287c0,.148-.013.294-.022.439H9.7c.007-.147.022-.291.022-.439A9.34,9.34,0,0,0,.439,180c-.148,0-.293.015-.439.022v2.637c.146-.01.291-.022.439-.022A6.7,6.7,0,0,1,7.09,189.287Zm0,0" transform="translate(0 -174.726)"/>
  <path id="Path_27" data-name="Path 27" d="M.439,0C.291,0,.147.018,0,.022V2.659c.147-.005.291-.022.439-.022A11.98,11.98,0,0,1,12.364,14.561c0,.148-.017.292-.022.439h2.637c0-.147.022-.291.022-.439A14.6,14.6,0,0,0,.439,0Zm0,0"/>
</svg>
