<svg xmlns="http://www.w3.org/2000/svg" width="11.542" height="16.671" viewBox="0 0 11.542 16.671">
  <g id="microphone-black-shape" transform="translate(-73.087)">
    <g id="Group_23" data-name="Group 23" transform="translate(73.087)">
      <path id="Path_18" data-name="Path 18" d="M149.385,11.541a3.215,3.215,0,0,0,3.206-3.206V3.206a3.087,3.087,0,0,0-.942-2.264,3.192,3.192,0,0,0-4.528,0,3.087,3.087,0,0,0-.942,2.264V8.336a3.215,3.215,0,0,0,3.206,3.206Z" transform="translate(-143.614)"/>
      <path id="Path_19" data-name="Path 19" d="M84.438,182.914a.641.641,0,0,0-1.092.451v1.282a4.488,4.488,0,0,1-8.977,0v-1.282a.641.641,0,0,0-1.282,0v1.282a5.77,5.77,0,0,0,5.13,5.73V191.7H75.652a.641.641,0,0,0,0,1.283h6.412a.641.641,0,0,0,0-1.283H79.5v-1.323a5.771,5.771,0,0,0,5.13-5.73v-1.282A.616.616,0,0,0,84.438,182.914Z" transform="translate(-73.087 -176.312)" />
    </g>
  </g>
</svg>
