<svg xmlns="http://www.w3.org/2000/svg" width="23.665" height="17.219" viewBox="0 0 23.665 17.219">
  <g id="cloud-computing" transform="translate(0 -66.65)">
    <g id="Group_22" data-name="Group 22" transform="translate(0 66.65)">
      <path id="Path_17" data-name="Path 17" d="M18.491,83.869H13.414v-5.13h1.678a.525.525,0,0,0,.426-.832l-3.264-4.516a.52.52,0,0,0-.846,0L8.143,77.907a.524.524,0,0,0,.426.832h1.678v5.13H4.56A5.086,5.086,0,0,1,0,78.782a4.817,4.817,0,0,1,2.389-4.159,3.23,3.23,0,0,1-.2-1.127,3.275,3.275,0,0,1,3.278-3.278,3.222,3.222,0,0,1,1.122.2,6.563,6.563,0,0,1,12.471,2.166,5.71,5.71,0,0,1-.571,11.286Z" transform="translate(0 -66.65)" />
    </g>
  </g>
</svg>
